<svg aria-hidden="true" style="position: absolute; width: 0; height: 0; overflow: hidden;" version="1.1" xmlns="http://www.w3.org/2000/svg" xmlns:xlink="http://www.w3.org/1999/xlink">
<defs>
<symbol id="arrow" viewBox="0 0 53 32">
<path d="M4.889 18.857h37.714l-8.286 8.286c-1.143 1.143-1.143 2.857 0 4s2.857 1.143 4 0l13.143-13.143c1.143-1.143 1.143-2.857 0-4l-13.143-13.143c-1.143-1.143-2.857-1.143-4 0s-1.143 2.857 0 4l8.286 8.286h-37.714c-1.429 0-2.857 1.143-2.857 2.857s1.429 2.857 2.857 2.857z"></path>
</symbol>
<symbol id="download" viewBox="0 0 22 32">
<path d="M9.639 2.111v23.151l-5.086-5.086c-0.702-0.701-1.754-0.701-2.455 0s-0.702 1.754 0 2.455l8.068 8.068c0.702 0.702 1.754 0.702 2.455 0l8.068-8.068c0.701-0.701 0.701-1.754 0-2.455s-1.754-0.701-2.455 0l-5.086 5.086v-23.151c0-0.877-0.702-1.754-1.754-1.754s-1.754 0.877-1.754 1.754z"></path>
</symbol>
</defs>
</svg>
